<svg xmlns="http://www.w3.org/2000/svg" viewBox="0 0 1040 600" width="1040" height="600" font-family="Helvetica, Arial, sans-serif">
<rect width="1040" height="600" fill="#fff"/>
<text x="40" y="44" font-size="22" font-weight="700" fill="#0f172a">Actuator trade study — KAI V1</text>
<text x="40" y="66" font-size="13" fill="#64748b">Qualitative engineering judgement · no parts tested · final choice after donor measurements</text>
<text x="390.0" y="130" font-size="13" font-weight="700" fill="#0f172a" text-anchor="middle">A · Hobby servo</text>
<text x="570.0" y="130" font-size="13" font-weight="700" fill="#0f172a" text-anchor="middle">B · Geared DC + encoder</text>
<text x="750.0" y="130" font-size="13" font-weight="700" fill="#0f172a" text-anchor="middle">C · Worm gearmotor</text>
<text x="930.0" y="130" font-size="13" font-weight="700" fill="#0f172a" text-anchor="middle">D · Stepper + gearbox</text>
<rect x="40" y="150" width="980" height="40" fill="#f8fafc"/>
<text x="52" y="175" font-size="13" fill="#0f172a">Torque</text>
<circle cx="368.0" cy="170" r="7" fill="#fde68a" stroke="#64748b"/>
<circle cx="390.0" cy="170" r="7" fill="#fde68a" stroke="#64748b"/>
<circle cx="412.0" cy="170" r="7" fill="#e5e7eb" stroke="#e5e7eb"/>
<circle cx="548.0" cy="170" r="7" fill="#86efac" stroke="#64748b"/>
<circle cx="570.0" cy="170" r="7" fill="#86efac" stroke="#64748b"/>
<circle cx="592.0" cy="170" r="7" fill="#86efac" stroke="#64748b"/>
<circle cx="728.0" cy="170" r="7" fill="#86efac" stroke="#64748b"/>
<circle cx="750.0" cy="170" r="7" fill="#86efac" stroke="#64748b"/>
<circle cx="772.0" cy="170" r="7" fill="#86efac" stroke="#64748b"/>
<circle cx="908.0" cy="170" r="7" fill="#86efac" stroke="#64748b"/>
<circle cx="930.0" cy="170" r="7" fill="#86efac" stroke="#64748b"/>
<circle cx="952.0" cy="170" r="7" fill="#86efac" stroke="#64748b"/>
<text x="52" y="215" font-size="13" fill="#0f172a">Speed</text>
<circle cx="368.0" cy="210" r="7" fill="#86efac" stroke="#64748b"/>
<circle cx="390.0" cy="210" r="7" fill="#86efac" stroke="#64748b"/>
<circle cx="412.0" cy="210" r="7" fill="#86efac" stroke="#64748b"/>
<circle cx="548.0" cy="210" r="7" fill="#86efac" stroke="#64748b"/>
<circle cx="570.0" cy="210" r="7" fill="#86efac" stroke="#64748b"/>
<circle cx="592.0" cy="210" r="7" fill="#86efac" stroke="#64748b"/>
<circle cx="728.0" cy="210" r="7" fill="#86efac" stroke="#64748b"/>
<circle cx="750.0" cy="210" r="7" fill="#86efac" stroke="#64748b"/>
<circle cx="772.0" cy="210" r="7" fill="#86efac" stroke="#64748b"/>
<circle cx="908.0" cy="210" r="7" fill="#86efac" stroke="#64748b"/>
<circle cx="930.0" cy="210" r="7" fill="#86efac" stroke="#64748b"/>
<circle cx="952.0" cy="210" r="7" fill="#86efac" stroke="#64748b"/>
<rect x="40" y="230" width="980" height="40" fill="#f8fafc"/>
<text x="52" y="255" font-size="13" fill="#0f172a">Position feedback</text>
<circle cx="368.0" cy="250" r="7" fill="#fca5a5" stroke="#64748b"/>
<circle cx="390.0" cy="250" r="7" fill="#e5e7eb" stroke="#e5e7eb"/>
<circle cx="412.0" cy="250" r="7" fill="#e5e7eb" stroke="#e5e7eb"/>
<circle cx="548.0" cy="250" r="7" fill="#86efac" stroke="#64748b"/>
<circle cx="570.0" cy="250" r="7" fill="#86efac" stroke="#64748b"/>
<circle cx="592.0" cy="250" r="7" fill="#86efac" stroke="#64748b"/>
<circle cx="728.0" cy="250" r="7" fill="#fca5a5" stroke="#64748b"/>
<circle cx="750.0" cy="250" r="7" fill="#e5e7eb" stroke="#e5e7eb"/>
<circle cx="772.0" cy="250" r="7" fill="#e5e7eb" stroke="#e5e7eb"/>
<circle cx="908.0" cy="250" r="7" fill="#fde68a" stroke="#64748b"/>
<circle cx="930.0" cy="250" r="7" fill="#fde68a" stroke="#64748b"/>
<circle cx="952.0" cy="250" r="7" fill="#e5e7eb" stroke="#e5e7eb"/>
<text x="52" y="295" font-size="13" fill="#0f172a" font-weight="700">Holding (unpowered)  (weighted ×2)</text>
<circle cx="368.0" cy="290" r="7" fill="#fca5a5" stroke="#64748b"/>
<circle cx="390.0" cy="290" r="7" fill="#e5e7eb" stroke="#e5e7eb"/>
<circle cx="412.0" cy="290" r="7" fill="#e5e7eb" stroke="#e5e7eb"/>
<circle cx="548.0" cy="290" r="7" fill="#fca5a5" stroke="#64748b"/>
<circle cx="570.0" cy="290" r="7" fill="#e5e7eb" stroke="#e5e7eb"/>
<circle cx="592.0" cy="290" r="7" fill="#e5e7eb" stroke="#e5e7eb"/>
<circle cx="728.0" cy="290" r="7" fill="#86efac" stroke="#64748b"/>
<circle cx="750.0" cy="290" r="7" fill="#86efac" stroke="#64748b"/>
<circle cx="772.0" cy="290" r="7" fill="#86efac" stroke="#64748b"/>
<circle cx="908.0" cy="290" r="7" fill="#fde68a" stroke="#64748b"/>
<circle cx="930.0" cy="290" r="7" fill="#fde68a" stroke="#64748b"/>
<circle cx="952.0" cy="290" r="7" fill="#e5e7eb" stroke="#e5e7eb"/>
<rect x="40" y="310" width="980" height="40" fill="#f8fafc"/>
<text x="52" y="335" font-size="13" fill="#0f172a">Power</text>
<circle cx="368.0" cy="330" r="7" fill="#fde68a" stroke="#64748b"/>
<circle cx="390.0" cy="330" r="7" fill="#fde68a" stroke="#64748b"/>
<circle cx="412.0" cy="330" r="7" fill="#e5e7eb" stroke="#e5e7eb"/>
<circle cx="548.0" cy="330" r="7" fill="#fde68a" stroke="#64748b"/>
<circle cx="570.0" cy="330" r="7" fill="#fde68a" stroke="#64748b"/>
<circle cx="592.0" cy="330" r="7" fill="#e5e7eb" stroke="#e5e7eb"/>
<circle cx="728.0" cy="330" r="7" fill="#86efac" stroke="#64748b"/>
<circle cx="750.0" cy="330" r="7" fill="#86efac" stroke="#64748b"/>
<circle cx="772.0" cy="330" r="7" fill="#86efac" stroke="#64748b"/>
<circle cx="908.0" cy="330" r="7" fill="#fca5a5" stroke="#64748b"/>
<circle cx="930.0" cy="330" r="7" fill="#e5e7eb" stroke="#e5e7eb"/>
<circle cx="952.0" cy="330" r="7" fill="#e5e7eb" stroke="#e5e7eb"/>
<text x="52" y="375" font-size="13" fill="#0f172a">Cost</text>
<circle cx="368.0" cy="370" r="7" fill="#86efac" stroke="#64748b"/>
<circle cx="390.0" cy="370" r="7" fill="#86efac" stroke="#64748b"/>
<circle cx="412.0" cy="370" r="7" fill="#86efac" stroke="#64748b"/>
<circle cx="548.0" cy="370" r="7" fill="#fde68a" stroke="#64748b"/>
<circle cx="570.0" cy="370" r="7" fill="#fde68a" stroke="#64748b"/>
<circle cx="592.0" cy="370" r="7" fill="#e5e7eb" stroke="#e5e7eb"/>
<circle cx="728.0" cy="370" r="7" fill="#86efac" stroke="#64748b"/>
<circle cx="750.0" cy="370" r="7" fill="#86efac" stroke="#64748b"/>
<circle cx="772.0" cy="370" r="7" fill="#86efac" stroke="#64748b"/>
<circle cx="908.0" cy="370" r="7" fill="#fca5a5" stroke="#64748b"/>
<circle cx="930.0" cy="370" r="7" fill="#e5e7eb" stroke="#e5e7eb"/>
<circle cx="952.0" cy="370" r="7" fill="#e5e7eb" stroke="#e5e7eb"/>
<rect x="40" y="390" width="980" height="40" fill="#f8fafc"/>
<text x="52" y="415" font-size="13" fill="#0f172a">Mechanical integration</text>
<circle cx="368.0" cy="410" r="7" fill="#fde68a" stroke="#64748b"/>
<circle cx="390.0" cy="410" r="7" fill="#fde68a" stroke="#64748b"/>
<circle cx="412.0" cy="410" r="7" fill="#e5e7eb" stroke="#e5e7eb"/>
<circle cx="548.0" cy="410" r="7" fill="#fde68a" stroke="#64748b"/>
<circle cx="570.0" cy="410" r="7" fill="#fde68a" stroke="#64748b"/>
<circle cx="592.0" cy="410" r="7" fill="#e5e7eb" stroke="#e5e7eb"/>
<circle cx="728.0" cy="410" r="7" fill="#fde68a" stroke="#64748b"/>
<circle cx="750.0" cy="410" r="7" fill="#fde68a" stroke="#64748b"/>
<circle cx="772.0" cy="410" r="7" fill="#e5e7eb" stroke="#e5e7eb"/>
<circle cx="908.0" cy="410" r="7" fill="#fca5a5" stroke="#64748b"/>
<circle cx="930.0" cy="410" r="7" fill="#e5e7eb" stroke="#e5e7eb"/>
<circle cx="952.0" cy="410" r="7" fill="#e5e7eb" stroke="#e5e7eb"/>
<text x="52" y="455" font-size="13" fill="#0f172a">Safety</text>
<circle cx="368.0" cy="450" r="7" fill="#fca5a5" stroke="#64748b"/>
<circle cx="390.0" cy="450" r="7" fill="#e5e7eb" stroke="#e5e7eb"/>
<circle cx="412.0" cy="450" r="7" fill="#e5e7eb" stroke="#e5e7eb"/>
<circle cx="548.0" cy="450" r="7" fill="#fde68a" stroke="#64748b"/>
<circle cx="570.0" cy="450" r="7" fill="#fde68a" stroke="#64748b"/>
<circle cx="592.0" cy="450" r="7" fill="#e5e7eb" stroke="#e5e7eb"/>
<circle cx="728.0" cy="450" r="7" fill="#86efac" stroke="#64748b"/>
<circle cx="750.0" cy="450" r="7" fill="#86efac" stroke="#64748b"/>
<circle cx="772.0" cy="450" r="7" fill="#86efac" stroke="#64748b"/>
<circle cx="908.0" cy="450" r="7" fill="#fde68a" stroke="#64748b"/>
<circle cx="930.0" cy="450" r="7" fill="#fde68a" stroke="#64748b"/>
<circle cx="952.0" cy="450" r="7" fill="#e5e7eb" stroke="#e5e7eb"/>
<rect x="40" y="470" width="980" height="40" fill="#f8fafc"/>
<text x="52" y="495" font-size="13" fill="#0f172a">Control simplicity</text>
<circle cx="368.0" cy="490" r="7" fill="#86efac" stroke="#64748b"/>
<circle cx="390.0" cy="490" r="7" fill="#86efac" stroke="#64748b"/>
<circle cx="412.0" cy="490" r="7" fill="#86efac" stroke="#64748b"/>
<circle cx="548.0" cy="490" r="7" fill="#fca5a5" stroke="#64748b"/>
<circle cx="570.0" cy="490" r="7" fill="#e5e7eb" stroke="#e5e7eb"/>
<circle cx="592.0" cy="490" r="7" fill="#e5e7eb" stroke="#e5e7eb"/>
<circle cx="728.0" cy="490" r="7" fill="#86efac" stroke="#64748b"/>
<circle cx="750.0" cy="490" r="7" fill="#86efac" stroke="#64748b"/>
<circle cx="772.0" cy="490" r="7" fill="#86efac" stroke="#64748b"/>
<circle cx="908.0" cy="490" r="7" fill="#fde68a" stroke="#64748b"/>
<circle cx="930.0" cy="490" r="7" fill="#fde68a" stroke="#64748b"/>
<circle cx="952.0" cy="490" r="7" fill="#e5e7eb" stroke="#e5e7eb"/>
<line x1="40" y1="518" x2="1020" y2="518" stroke="#334155"/>
<text x="52" y="544" font-size="13" font-weight="700" fill="#0f172a">Indicative total (max 30)</text>
<text x="390.0" y="544" font-size="15" font-weight="700" fill="#334155" text-anchor="middle">19</text>
<text x="570.0" y="544" font-size="15" font-weight="700" fill="#334155" text-anchor="middle">20</text>
<text x="750.0" y="544" font-size="15" font-weight="700" fill="#166534" text-anchor="middle">27</text>
<text x="930.0" y="544" font-size="15" font-weight="700" fill="#334155" text-anchor="middle">19</text>
<rect x="668" y="106" width="164" height="452" rx="12" fill="none" stroke="#166534" stroke-width="3"/>
<text x="750.0" y="100" font-size="11" font-weight="700" fill="#166534" text-anchor="middle">PROVISIONAL V1</text>
<text x="40" y="576" font-size="12" fill="#334155">Scores rank options for this project only; they are not measurements. Holding is weighted because residual and snap-up torque are unmeasured.</text>
</svg>