<svg xmlns="http://www.w3.org/2000/svg" viewBox="0 0 1040 560" width="1040" height="560" font-family="Helvetica, Arial, sans-serif">
<rect width="1040" height="560" fill="#fff"/>
<text x="40" y="44" font-size="22" font-weight="700" fill="#0f172a">J2 torque model — EXAMPLE output</text>
<rect x="40" y="56" width="650" height="24" rx="4" fill="#fef2f2" stroke="#dc2626"/>
<text x="50" y="73" font-size="12" font-weight="700" fill="#991b1b">ILLUSTRATIVE ONLY — example parameters, NOT measurements. Spring force solved to balance at θ = 0.</text>
<line x1="110" y1="450.0" x2="750" y2="450.0" stroke="#eef2f7"/>
<text x="100" y="454.0" font-size="11" fill="#64748b" text-anchor="end">-5</text>
<line x1="110" y1="431.1" x2="750" y2="431.1" stroke="#eef2f7"/>
<text x="100" y="435.1" font-size="11" fill="#64748b" text-anchor="end">-4</text>
<line x1="110" y1="412.2" x2="750" y2="412.2" stroke="#eef2f7"/>
<text x="100" y="416.2" font-size="11" fill="#64748b" text-anchor="end">-3</text>
<line x1="110" y1="393.3" x2="750" y2="393.3" stroke="#eef2f7"/>
<text x="100" y="397.3" font-size="11" fill="#64748b" text-anchor="end">-2</text>
<line x1="110" y1="374.4" x2="750" y2="374.4" stroke="#eef2f7"/>
<text x="100" y="378.4" font-size="11" fill="#64748b" text-anchor="end">-1</text>
<line x1="110" y1="355.6" x2="750" y2="355.6" stroke="#94a3b8"/>
<text x="100" y="359.6" font-size="11" fill="#64748b" text-anchor="end">0</text>
<line x1="110" y1="336.7" x2="750" y2="336.7" stroke="#eef2f7"/>
<text x="100" y="340.7" font-size="11" fill="#64748b" text-anchor="end">1</text>
<line x1="110" y1="317.8" x2="750" y2="317.8" stroke="#eef2f7"/>
<text x="100" y="321.8" font-size="11" fill="#64748b" text-anchor="end">2</text>
<line x1="110" y1="298.9" x2="750" y2="298.9" stroke="#eef2f7"/>
<text x="100" y="302.9" font-size="11" fill="#64748b" text-anchor="end">3</text>
<line x1="110" y1="280.0" x2="750" y2="280.0" stroke="#eef2f7"/>
<text x="100" y="284.0" font-size="11" fill="#64748b" text-anchor="end">4</text>
<line x1="110" y1="261.1" x2="750" y2="261.1" stroke="#eef2f7"/>
<text x="100" y="265.1" font-size="11" fill="#64748b" text-anchor="end">5</text>
<line x1="110" y1="242.2" x2="750" y2="242.2" stroke="#eef2f7"/>
<text x="100" y="246.2" font-size="11" fill="#64748b" text-anchor="end">6</text>
<line x1="110" y1="223.3" x2="750" y2="223.3" stroke="#eef2f7"/>
<text x="100" y="227.3" font-size="11" fill="#64748b" text-anchor="end">7</text>
<line x1="110" y1="204.4" x2="750" y2="204.4" stroke="#eef2f7"/>
<text x="100" y="208.4" font-size="11" fill="#64748b" text-anchor="end">8</text>
<line x1="110" y1="185.6" x2="750" y2="185.6" stroke="#eef2f7"/>
<text x="100" y="189.6" font-size="11" fill="#64748b" text-anchor="end">9</text>
<line x1="110" y1="166.7" x2="750" y2="166.7" stroke="#eef2f7"/>
<text x="100" y="170.7" font-size="11" fill="#64748b" text-anchor="end">10</text>
<line x1="110" y1="147.8" x2="750" y2="147.8" stroke="#eef2f7"/>
<text x="100" y="151.8" font-size="11" fill="#64748b" text-anchor="end">11</text>
<line x1="110" y1="128.9" x2="750" y2="128.9" stroke="#eef2f7"/>
<text x="100" y="132.9" font-size="11" fill="#64748b" text-anchor="end">12</text>
<line x1="110" y1="110.0" x2="750" y2="110.0" stroke="#eef2f7"/>
<text x="100" y="114.0" font-size="11" fill="#64748b" text-anchor="end">13</text>
<text x="110.0" y="470" font-size="11" fill="#64748b" text-anchor="middle">-30°</text>
<text x="216.7" y="470" font-size="11" fill="#64748b" text-anchor="middle">-20°</text>
<text x="323.3" y="470" font-size="11" fill="#64748b" text-anchor="middle">-10°</text>
<text x="430.0" y="470" font-size="11" fill="#64748b" text-anchor="middle">0°</text>
<text x="536.7" y="470" font-size="11" fill="#64748b" text-anchor="middle">10°</text>
<text x="643.3" y="470" font-size="11" fill="#64748b" text-anchor="middle">20°</text>
<text x="750.0" y="470" font-size="11" fill="#64748b" text-anchor="middle">30°</text>
<text x="430.0" y="494" font-size="12" fill="#334155" text-anchor="middle">J2 angle θ above horizontal</text>
<text x="40" y="280.0" font-size="12" fill="#334155" transform="rotate(-90 40 280.0)" text-anchor="middle">torque about J2 (N·m)</text>
<polyline points="110.0,162.5 163.3,155.1 216.7,149.0 270.0,144.2 323.3,140.7 376.7,138.6 430.0,137.9 483.3,138.6 536.7,140.7 590.0,144.2 643.3,149.0 696.7,155.1 750.0,162.5" fill="none" stroke="#475569" stroke-width="2.5" stroke-dasharray=""/>
<polyline points="110.0,122.7 163.3,121.1 216.7,121.4 270.0,123.3 323.3,126.8 376.7,131.7 430.0,137.9 483.3,145.2 536.7,153.7 590.0,163.1 643.3,173.4 696.7,184.5 750.0,196.3" fill="none" stroke="#0f766e" stroke-width="2.5" stroke-dasharray=""/>
<polyline points="110.0,395.3 163.3,389.5 216.7,383.2 270.0,376.4 323.3,369.4 376.7,362.4 430.0,355.6 483.3,348.9 536.7,342.5 590.0,336.6 643.3,331.1 696.7,326.1 750.0,321.7" fill="none" stroke="#c2410c" stroke-width="2.5" stroke-dasharray=""/>
<polyline points="110.0,435.8 163.3,431.5 216.7,426.3 270.0,420.5 323.3,414.3 376.7,407.7 430.0,400.9 483.3,394.1 536.7,387.4 590.0,380.7 643.3,374.3 696.7,368.1 750.0,362.1" fill="none" stroke="#dc2626" stroke-width="2.5" stroke-dasharray="6 4"/>
<line x1="780" y1="120" x2="810" y2="120" stroke="#475569" stroke-width="2.5" stroke-dasharray=""/>
<text x="818" y="124" font-size="12" fill="#334155">gravity τ_g</text>
<line x1="780" y1="144" x2="810" y2="144" stroke="#0f766e" stroke-width="2.5" stroke-dasharray=""/>
<text x="818" y="148" font-size="12" fill="#334155">spring τ_s</text>
<line x1="780" y1="168" x2="810" y2="168" stroke="#c2410c" stroke-width="2.5" stroke-dasharray=""/>
<text x="818" y="172" font-size="12" fill="#334155">residual, with device</text>
<line x1="780" y1="192" x2="810" y2="192" stroke="#dc2626" stroke-width="2.5" stroke-dasharray="6 4"/>
<text x="818" y="196" font-size="12" fill="#334155">residual, device removed</text>
<text x="780" y="240" font-size="13" font-weight="700" fill="#0f172a">Example summary</text>
<text x="780" y="264" font-size="11" fill="#334155">tau dyn: 0.366 N·m</text>
<text x="780" y="284" font-size="11" fill="#334155">max abs tau res: 2.106 N·m</text>
<text x="780" y="304" font-size="11" fill="#334155">tau req (with payload): 5.545 N·m</text>
<text x="780" y="324" font-size="11" fill="#334155">max abs tau res no payload: 4.246 N·m</text>
<text x="780" y="344" font-size="11" fill="#334155">tau req (payload removed while armed): 9.825 N·m</text>
<text x="780" y="380" font-size="11" fill="#64748b">Positive = tends to lower the arm.</text>
<text x="780" y="396" font-size="11" fill="#64748b">Negative = spring wins (arm rises).</text>
</svg>